<svg width="198" height="79" viewBox="0 0 198 79" fill="none" xmlns="http://www.w3.org/2000/svg">
<g clip-path="url(#clip0_1_2)">
<path d="M20.0068 35.1758C19.2646 34.8828 18.7764 34.502 18.542 34.0332C19.0986 32.9785 19.4697 32.2705 19.6553 31.9092C19.8506 31.5479 20.0703 30.9961 20.3145 30.2539C20.5684 29.502 20.7441 28.7451 20.8418 27.9834H30.9932H43.1953C43.4395 29.8975 44.2012 31.9141 45.4805 34.0332C45.2559 34.502 44.7334 34.8828 43.9131 35.1758C43.1123 33.7207 41.9307 32.5098 40.3682 31.543C38.8154 30.5664 36.7988 30.0781 34.3184 30.0781C34.2402 32.5 34.2012 35.3711 34.2012 38.6914C34.2012 42.9297 34.25 46.0205 34.3477 47.9639C34.3672 48.3252 35.4561 48.6133 37.6143 48.8281C37.7803 49.4531 37.7607 50.083 37.5557 50.7178C34.3916 50.6396 32.5508 50.6006 32.0332 50.6006C31.252 50.6006 29.0645 50.6396 25.4707 50.7178C25.2266 50.0439 25.2266 49.4141 25.4707 48.8281C27.5898 48.6133 28.6592 48.335 28.6787 47.9932C28.7764 45.5322 28.8252 42.4316 28.8252 38.6914C28.8252 35.5664 28.7861 32.7246 28.708 30.166C24.6455 30.6934 21.7451 32.3633 20.0068 35.1758ZM24.1523 29.5654L29.2793 29.4189C29.377 32.6611 29.4258 35.752 29.4258 38.6914C29.4258 42.4707 29.377 45.5713 29.2793 47.9932C29.2598 48.7158 28.127 49.1846 25.8809 49.3994C25.8027 49.5557 25.8027 49.7852 25.8809 50.0879C27.541 50.0293 29.2451 50 30.9932 50C33.0732 50 35.0703 50.0293 36.9844 50.0879C37.0625 49.9121 37.0625 49.6826 36.9844 49.3994C33.7422 49.2041 32.1113 48.7354 32.0918 47.9932C31.9941 44.751 31.9453 41.6504 31.9453 38.6914C31.9453 34.9316 31.9941 31.8408 32.0918 29.4189L34.3477 29.4775C39.2109 29.5947 42.4922 31.2451 44.1914 34.4287C44.4453 34.3311 44.6113 34.1992 44.6895 34.0332C43.7129 32.041 42.6191 30.6348 41.4082 29.8145C40.1973 28.9941 38.3955 28.584 36.0029 28.584H30.9932C29.9287 28.584 28.3223 28.5791 26.1738 28.5693C24.0254 28.5596 22.4287 28.5547 21.3838 28.5547C21.3447 28.8867 21.2764 29.2334 21.1787 29.5947C21.0811 29.9561 20.9883 30.2637 20.9004 30.5176C20.8223 30.7617 20.6855 31.0889 20.4902 31.499C20.3047 31.9092 20.1777 32.1875 20.1094 32.334C20.041 32.4707 19.8848 32.7734 19.6406 33.2422C19.4062 33.7109 19.2695 33.9746 19.2305 34.0332C19.3086 34.1992 19.4795 34.3311 19.7432 34.4287C20.4365 33.2861 20.9736 32.4414 21.3545 31.8945C21.7354 31.3477 22.1846 30.8252 22.7021 30.3271C23.2295 29.8193 23.7129 29.5654 24.1523 29.5654Z" fill="#040000"/>
<path d="M55.0312 49.3262C54.9141 49.5508 54.9141 49.79 55.0312 50.0439C57.5703 49.9854 60.1094 49.9854 62.6484 50.0439C62.7949 49.8096 62.7949 49.5703 62.6484 49.3262C60.2754 49.209 59.0791 48.7402 59.0596 47.9199L58.8984 40.5518C58.8594 39.2139 58.6445 38.2373 58.2539 37.6221C57.8633 36.9971 57.1895 36.6846 56.2324 36.6846C54.6113 36.6846 52.6826 37.8027 50.4463 40.0391V28.0713C50.3682 27.915 50.1973 27.7832 49.9336 27.6758C48.5762 28.3203 47.165 28.7207 45.7002 28.877C45.6416 29.1211 45.6416 29.3506 45.7002 29.5654C46.8232 29.624 47.6533 29.8242 48.1904 30.166V47.9199C48.1709 48.6426 47.3311 49.1113 45.6709 49.3262C45.5537 49.5508 45.5537 49.79 45.6709 50.0439C48.2295 49.9463 50.7783 49.9463 53.3174 50.0439C53.4443 49.79 53.4443 49.5508 53.3174 49.3262C51.501 49.1309 50.583 48.6621 50.5635 47.9199C50.4854 45.8398 50.4463 43.5254 50.4463 40.9766C52.3994 39.248 53.9375 38.3838 55.0605 38.3838C56.125 38.3838 56.6572 39.2676 56.6572 41.0352L56.6279 47.9199C56.6279 48.3984 56.4814 48.7354 56.1885 48.9307C55.8955 49.1162 55.5098 49.248 55.0312 49.3262ZM54.5479 50.5566C54.3135 49.9805 54.3135 49.3896 54.5479 48.7842C54.8701 48.7842 55.1973 48.7012 55.5293 48.5352C55.8613 48.3594 56.0273 48.1543 56.0273 47.9199L56.0566 41.0352C56.0566 39.9707 55.8467 39.3213 55.4268 39.0869C54.7041 39.2627 53.7324 39.79 52.5117 40.6689C52.5117 43.3057 52.5508 45.7129 52.6289 47.8906C52.668 48.4082 53.0586 48.7061 53.8008 48.7842C54.0449 49.3896 54.0449 49.9805 53.8008 50.5566C50.9395 50.459 48.0586 50.459 45.1582 50.5566C44.9238 49.9805 44.9238 49.3896 45.1582 48.7842C46.7598 48.5693 47.5703 48.2715 47.5898 47.8906V30.5322C46.9355 30.3271 46.125 30.1953 45.1582 30.1367C44.9434 29.5605 44.9434 28.9404 45.1582 28.2764C46.6426 28.1982 48.3027 27.7588 50.1387 26.958C51.2031 27.0361 51.9941 27.3584 52.5117 27.9248V37.4609C53.8887 36.543 55.4805 36.084 57.2871 36.084C58.6055 36.084 59.543 36.4453 60.0996 37.168C60.666 37.8809 60.959 39.0088 60.9785 40.5518C61.0176 44.3799 61.0664 46.8359 61.125 47.9199C61.1445 48.3203 61.833 48.6084 63.1904 48.7842C63.415 49.4287 63.3955 50.0195 63.1318 50.5566C60.2705 50.498 57.4092 50.498 54.5479 50.5566ZM71.9941 37.6367C72.7754 37.6367 73.3418 37.8906 73.6934 38.3984C74.0449 38.8965 74.2207 39.5215 74.2207 40.2734C74.2207 40.5566 74.1719 40.8789 74.0742 41.2402H68.3613C68.6641 40.0195 69.1523 39.1162 69.8262 38.5303C70.5098 37.9346 71.2324 37.6367 71.9941 37.6367ZM68.2148 42.2363H76.1982C76.3545 41.748 76.4326 41.2451 76.4326 40.7275C76.4326 39.585 76.1055 38.6279 75.4512 37.8564C74.8066 37.0752 73.7764 36.6846 72.3604 36.6846C70.5146 36.6846 68.9619 37.3535 67.7021 38.6914C66.4424 40.0293 65.8125 41.7285 65.8125 43.7891C65.8125 45.9863 66.4131 47.6416 67.6143 48.7549C68.8154 49.8682 70.2266 50.4248 71.8477 50.4248C73.0488 50.4248 74.1621 50.1025 75.1875 49.458C76.2227 48.8037 76.9795 47.8223 77.458 46.5137C77.3213 46.3574 77.1309 46.25 76.8867 46.1914C76.8477 46.25 76.7305 46.4111 76.5352 46.6748C76.3496 46.9287 76.2129 47.1143 76.125 47.2314C76.0371 47.3389 75.876 47.5 75.6416 47.7148C75.417 47.9199 75.1973 48.0713 74.9824 48.1689C74.7773 48.2666 74.5137 48.3643 74.1914 48.4619C73.8691 48.5498 73.5176 48.5938 73.1367 48.5938C71.6328 48.5938 70.4365 48.1494 69.5479 47.2607C68.6592 46.3623 68.1953 45.1562 68.1562 43.6426C68.1562 43.3008 68.1758 42.832 68.2148 42.2363ZM76.6523 45.5029C77.2676 45.6396 77.7656 45.9473 78.1465 46.4258C77.5898 47.9492 76.7305 49.0967 75.5684 49.8682C74.4062 50.6396 73.166 51.0254 71.8477 51.0254C70.0508 51.0254 68.4932 50.4199 67.1748 49.209C65.8662 47.998 65.2119 46.1914 65.2119 43.7891C65.2119 41.6113 65.8809 39.7852 67.2188 38.3105C68.5664 36.8262 70.4707 36.084 72.9316 36.084C76.6523 36.084 78.5127 37.6318 78.5127 40.7275C78.5127 41.333 78.3711 42.0361 78.0879 42.8369H70.2217V43.7891C70.2705 44.9707 70.5928 45.9326 71.1885 46.6748C71.7842 47.4072 72.6045 47.8369 73.6494 47.9639C74.2646 47.9053 74.7725 47.6953 75.1729 47.334C75.5732 46.9727 76.0664 46.3623 76.6523 45.5029ZM73.6201 40.2734C73.6201 39.1992 73.2588 38.5498 72.5361 38.3252C71.6768 38.5889 71.0371 39.3604 70.6172 40.6396H73.5908C73.5908 40.6006 73.5957 40.542 73.6055 40.4639C73.6152 40.3857 73.6201 40.3223 73.6201 40.2734ZM107.224 50.1758C106.755 50.332 106.296 50.5225 105.847 50.7471C105.388 50.4639 105.085 50.1758 104.938 49.8828C104.958 49.8242 104.987 49.624 105.026 49.2822C105.065 48.9404 105.104 48.54 105.144 48.0811C105.192 47.6221 105.231 47.1484 105.261 46.6602C105.29 46.1719 105.305 45.7568 105.305 45.415C105.764 45.2002 106.472 45.0928 107.429 45.0928C107.536 45.0928 107.644 45.0928 107.751 45.0928C107.858 45.0928 107.971 45.0977 108.088 45.1074C108.791 47.3926 109.753 48.6328 110.974 48.8281C111.472 48.75 111.853 48.5693 112.116 48.2861C112.39 47.9932 112.526 47.666 112.526 47.3047C112.526 47.041 112.453 46.7969 112.307 46.5723C112.16 46.3379 111.965 46.123 111.721 45.9277C111.477 45.7324 111.188 45.5518 110.856 45.3857C110.534 45.2197 110.192 45.0586 109.831 44.9023C109.47 44.7363 109.104 44.5801 108.732 44.4336C108.361 44.2773 108.005 44.1162 107.663 43.9502C107.302 43.7842 106.96 43.584 106.638 43.3496C106.315 43.1055 106.032 42.832 105.788 42.5293C105.544 42.2168 105.349 41.875 105.202 41.5039C105.065 41.1328 104.997 40.7324 104.997 40.3027C104.997 39.8438 105.075 39.3652 105.231 38.8672C105.388 38.3691 105.656 37.915 106.037 37.5049C106.418 37.0947 106.931 36.7578 107.575 36.4941C108.22 36.2207 109.03 36.084 110.007 36.084C111.091 36.084 111.892 36.1426 112.409 36.2598L112.951 36.084H113.947C114.074 36.9141 114.226 37.6904 114.401 38.4131C114.587 39.1357 114.792 39.8096 115.017 40.4346C114.597 40.8545 114.089 41.0645 113.493 41.0645C113.161 40.6738 112.854 40.3223 112.57 40.0098C112.287 39.6875 112.014 39.4092 111.75 39.1748C111.496 38.9404 111.242 38.75 110.988 38.6035C110.744 38.457 110.49 38.3545 110.227 38.2959C109.582 38.4033 109.26 38.6963 109.26 39.1748C109.26 39.5557 109.426 39.8877 109.758 40.1709C110.09 40.4541 110.505 40.7129 111.003 40.9473C111.501 41.1816 112.043 41.4062 112.629 41.6211C113.225 41.8262 113.786 42.0459 114.313 42.2803C114.694 42.4463 115.051 42.6611 115.383 42.9248C115.725 43.1885 116.022 43.4961 116.276 43.8477C116.53 44.1895 116.73 44.5752 116.877 45.0049C117.023 45.4248 117.097 45.8789 117.097 46.3672C117.097 47.0898 116.911 47.7393 116.54 48.3154C116.179 48.8916 115.695 49.3799 115.09 49.7803C114.494 50.1807 113.811 50.4883 113.039 50.7031C112.268 50.918 111.481 51.0254 110.681 51.0254C109.304 51.0254 108.151 50.7422 107.224 50.1758ZM110.578 50.4248C111.799 50.4248 112.844 50.0635 113.713 49.3408C114.582 48.6182 115.017 47.8076 115.017 46.9092C115.017 46.0303 114.748 45.2734 114.211 44.6387C113.674 43.9941 113.024 43.4961 112.263 43.1445C111.501 42.793 110.734 42.4707 109.963 42.1777C109.191 41.875 108.537 41.5234 108 41.123C107.463 40.7227 107.194 40.2539 107.194 39.7168C107.194 39.0332 107.448 38.5156 107.956 38.1641C108.464 37.8125 109.06 37.6367 109.743 37.6367C110.466 37.6367 111.11 37.8613 111.677 38.3105C112.243 38.7598 112.937 39.4775 113.757 40.4639C114.021 40.4639 114.211 40.4004 114.328 40.2734C113.967 39.2383 113.43 38.3838 112.717 37.71C112.014 37.0264 111.11 36.6846 110.007 36.6846C108.435 36.6846 107.307 37.0605 106.623 37.8125C105.939 38.5547 105.598 39.3848 105.598 40.3027C105.598 41.084 105.856 41.7529 106.374 42.3096C106.901 42.8564 107.531 43.2812 108.264 43.584C109.006 43.877 109.743 44.1699 110.476 44.4629C111.208 44.7559 111.833 45.1367 112.351 45.6055C112.868 46.0742 113.127 46.6406 113.127 47.3047C113.127 47.8613 112.888 48.3594 112.409 48.7988C111.931 49.2383 111.262 49.458 110.402 49.458C109.367 49.458 108.566 49.1309 108 48.4766C107.443 47.8125 106.975 46.8896 106.594 45.708C106.252 45.708 106.022 45.7373 105.905 45.7959C105.905 46.499 105.871 47.3047 105.803 48.2129C105.734 49.1211 105.666 49.6582 105.598 49.8242C105.666 49.9219 105.759 50.0098 105.876 50.0879C106.276 49.8047 106.584 49.5068 106.799 49.1943C107.658 49.6729 108.327 49.9951 108.806 50.1611C109.294 50.3369 109.885 50.4248 110.578 50.4248ZM124.216 38.457H129.973C130.109 38.0762 130.109 37.7246 129.973 37.4023H124.216V34.1943C123.972 34.0869 123.728 34.0869 123.483 34.1943C123.122 34.8682 122.722 35.459 122.282 35.9668C121.843 36.4648 121.472 36.8164 121.169 37.0215C120.876 37.2168 120.451 37.4707 119.895 37.7832C119.826 37.9883 119.826 38.2129 119.895 38.457H121.682V46.1328C121.682 48.9941 122.863 50.4248 125.227 50.4248C126.232 50.4248 127.16 50.166 128.01 49.6484C128.859 49.1211 129.494 48.4766 129.914 47.7148C129.826 47.5 129.665 47.3828 129.431 47.3633C128.513 48.1836 127.624 48.5938 126.765 48.5938C125.065 48.5938 124.216 47.8223 124.216 46.2793V38.457ZM129.255 46.7334C129.87 46.8115 130.31 47.1484 130.573 47.7441C130.065 48.6719 129.328 49.4482 128.361 50.0732C127.395 50.708 126.35 51.0254 125.227 51.0254C122.473 51.0254 121.096 49.3945 121.096 46.1328V39.043H119.294C119.147 38.5254 119.147 37.9883 119.294 37.4316C119.89 37.0898 120.344 36.8115 120.656 36.5967C120.969 36.3721 121.359 36.0107 121.828 35.5127C122.297 35.0146 122.712 34.4141 123.073 33.7109C123.991 33.3301 125.061 33.3496 126.281 33.7695V36.8018H130.544C130.856 37.5244 130.856 38.2715 130.544 39.043H126.281V46.2793C126.281 47.2168 126.618 47.7686 127.292 47.9346C127.878 47.8076 128.532 47.4072 129.255 46.7334ZM136.345 39.3506C136.804 39.4287 137.165 39.6094 137.429 39.8926C137.702 40.166 137.839 40.5176 137.839 40.9473C137.839 41.4648 137.668 41.8945 137.326 42.2363C136.984 42.5684 136.535 42.7344 135.979 42.7344C135.402 42.7344 134.88 42.5293 134.411 42.1191C133.942 41.709 133.708 41.1279 133.708 40.376C133.708 39.0967 134.313 38.0615 135.524 37.2705C136.745 36.4795 138.337 36.084 140.3 36.084C142.165 36.084 143.474 36.46 144.226 37.2119C144.987 37.9541 145.368 39.209 145.368 40.9766V46.1035L146.306 46.0742C147.106 46.1328 147.663 46.5137 147.976 47.2168L147.507 48.0225C147.204 48.4814 146.95 48.8379 146.745 49.0918C146.55 49.3359 146.267 49.6143 145.896 49.9268C145.524 50.2393 145.09 50.4639 144.592 50.6006C144.094 50.7373 143.513 50.8057 142.849 50.8057C142.028 50.8057 141.408 50.498 140.988 49.8828C139.934 50.6445 138.557 51.0254 136.857 51.0254C136.115 51.0254 135.48 50.9082 134.953 50.6738C134.436 50.4492 134.055 50.1465 133.811 49.7656C133.576 49.3848 133.41 49.0283 133.312 48.6963C133.215 48.3643 133.166 48.0273 133.166 47.6855C133.166 46.25 133.649 45.1758 134.616 44.4629C135.583 43.75 137.536 43.0176 140.476 42.2656V40.6689C140.476 39.8877 140.31 39.3164 139.978 38.9551C139.655 38.5938 139.235 38.4131 138.718 38.4131C137.614 38.4131 136.823 38.7256 136.345 39.3506ZM141.076 43.6426V46.7041C140.139 47.9443 139.182 48.5645 138.205 48.5645C137.639 48.5645 137.175 48.4277 136.813 48.1543C136.462 47.8809 136.286 47.4951 136.286 46.9971C136.286 46.1963 136.613 45.5371 137.268 45.0195C137.932 44.502 139.201 44.043 141.076 43.6426ZM140.476 46.5137V44.7266C139.06 45.2441 138.352 46.001 138.352 46.9971C138.352 47.417 138.503 47.71 138.806 47.876C139.323 47.6904 139.88 47.2363 140.476 46.5137ZM135.979 41.4453C135.637 41.4453 135.397 41.1963 135.261 40.6982C135.065 39.8975 135.305 39.1992 135.979 38.6035C136.643 38.0176 137.644 37.7246 138.981 37.7246C139.616 37.7246 140.124 37.9736 140.505 38.4717C140.886 38.96 141.076 39.6924 141.076 40.6689V42.7051C138.195 43.4473 136.257 44.1504 135.261 44.8145C134.265 45.4688 133.767 46.4258 133.767 47.6855C133.767 48.3496 133.991 48.9746 134.44 49.5605C134.89 50.1367 135.695 50.4248 136.857 50.4248C137.316 50.4248 137.746 50.3516 138.146 50.2051C138.557 50.0586 138.977 49.8242 139.406 49.502C139.846 49.1699 140.114 48.96 140.212 48.8721C140.31 48.7842 140.471 48.6328 140.695 48.418C140.93 48.1934 141.057 48.0713 141.076 48.0518C141.203 49.4873 141.794 50.2051 142.849 50.2051C143.112 50.2051 143.415 50.1367 143.757 50C144.099 49.8633 144.44 49.5947 144.782 49.1943C145.134 48.7939 145.354 48.5303 145.441 48.4033C145.539 48.2666 145.681 48.0566 145.866 47.7734C146.052 47.4805 146.188 47.2803 146.276 47.1729C146.149 46.8994 145.905 46.7432 145.544 46.7041C145.007 47.5244 144.46 47.9248 143.903 47.9053C143.503 47.8857 143.303 47.6025 143.303 47.0557V40.9766C143.303 39.4141 142.995 38.3105 142.38 37.666C141.774 37.0117 140.729 36.6846 139.245 36.6846C137.907 36.6846 136.745 37.0312 135.759 37.7246C134.782 38.4082 134.294 39.292 134.294 40.376C134.294 40.9326 134.465 41.3672 134.807 41.6797C135.148 41.9824 135.539 42.1338 135.979 42.1338C136.115 41.9385 136.115 41.709 135.979 41.4453ZM160.837 39.834C160.837 40.4297 160.588 40.8008 160.09 40.9473C159.953 41.2012 159.953 41.4307 160.09 41.6357C160.588 41.6357 161.008 41.4648 161.35 41.123C161.691 40.7812 161.862 40.3516 161.862 39.834C161.862 38.916 161.433 38.1641 160.573 37.5781C159.714 36.9824 158.591 36.6846 157.204 36.6846C155.271 36.6846 153.649 37.3389 152.341 38.6475C151.042 39.9561 150.393 41.6699 150.393 43.7891C150.393 45.9863 150.998 47.6416 152.209 48.7549C153.42 49.8682 154.846 50.4248 156.486 50.4248C157.688 50.4248 158.801 50.1025 159.826 49.458C160.861 48.8037 161.618 47.8223 162.097 46.5137C161.96 46.3574 161.77 46.25 161.525 46.1914C161.271 46.5527 161.062 46.8213 160.896 46.9971C160.739 47.1631 160.48 47.4023 160.119 47.7148C159.758 48.0176 159.353 48.2422 158.903 48.3887C158.454 48.5254 157.961 48.5938 157.424 48.5938C155.9 48.5938 154.782 48.1494 154.069 47.2607C153.366 46.3623 153.015 45.2051 153.015 43.7891C153.015 39.6875 154.411 37.6367 157.204 37.6367C158.327 37.6367 159.211 37.8223 159.855 38.1934C160.51 38.5645 160.837 39.1113 160.837 39.834ZM161.262 45.6201C161.916 45.6982 162.424 45.9668 162.785 46.4258C162.229 47.9492 161.369 49.0967 160.207 49.8682C159.045 50.6396 157.805 51.0254 156.486 51.0254C154.709 51.0254 153.146 50.4199 151.799 49.209C150.461 47.998 149.792 46.1914 149.792 43.7891C149.792 41.4941 150.495 39.6387 151.901 38.2227C153.317 36.7969 155.085 36.084 157.204 36.084C158.767 36.084 160.031 36.4355 160.998 37.1387C161.975 37.832 162.463 38.7305 162.463 39.834C162.463 40.5078 162.233 41.0449 161.774 41.4453C161.325 41.8457 160.764 42.0459 160.09 42.0459C158.869 42.0459 158.259 41.5088 158.259 40.4346C158.259 39.751 158.679 39.2578 159.519 38.9551C158.962 38.5742 158.381 38.3545 157.775 38.2959C155.979 38.5596 155.08 40.3906 155.08 43.7891C155.08 46.3477 156.027 47.7393 157.922 47.9639C159.064 47.8174 160.178 47.0361 161.262 45.6201ZM173.742 37.0068C173.625 37.2705 173.625 37.5 173.742 37.6953C174.045 37.7344 174.323 37.8125 174.577 37.9297C174.841 38.0371 175.026 38.1982 175.134 38.4131C175.241 38.6182 175.148 38.8525 174.855 39.1162L171.882 41.9287H170.71C170.69 39.0283 170.681 34.4287 170.681 28.1299C170.583 27.9541 170.412 27.8223 170.168 27.7344C168.869 28.3594 167.36 28.7598 165.642 28.9355C165.583 29.1797 165.583 29.4092 165.642 29.624C166.96 29.6924 167.902 29.8926 168.469 30.2246C168.469 31.4453 168.483 33.2812 168.513 35.7324C168.542 38.1836 168.557 40.3906 168.557 42.3535C168.557 44.3066 168.513 46.1865 168.425 47.9932C168.405 48.7158 167.575 49.1846 165.935 49.3994C165.817 49.6436 165.817 49.873 165.935 50.0879C167.224 50.0293 168.464 50 169.655 50C170.817 50 172.038 50.0293 173.317 50.0879C173.444 49.873 173.444 49.6436 173.317 49.3994C171.638 49.1846 170.798 48.7158 170.798 47.9932C170.739 46.9092 170.71 45.2002 170.71 42.8662H171.853L175.837 47.9932C176.423 48.7354 176.105 49.1748 174.885 49.3115C174.768 49.5459 174.768 49.7754 174.885 50H178.239C179.343 50 180.583 50.0293 181.96 50.0879C182.077 49.873 182.077 49.6436 181.96 49.3994C180.72 49.2627 179.851 49.0234 179.353 48.6816C179.069 48.4961 178.82 48.2666 178.605 47.9932L173.625 41.7236L176.203 39.1162C176.945 38.3545 178.176 37.8809 179.895 37.6953C179.973 37.4609 179.973 37.2314 179.895 37.0068C177.717 37.1338 175.666 37.1338 173.742 37.0068ZM173.479 36.4062C176.115 36.5039 178.391 36.4941 180.305 36.377C180.549 36.9824 180.563 37.6123 180.349 38.2666C178.522 38.4521 177.282 38.8721 176.628 39.5264L175.236 40.9473L180.554 47.627C180.876 48.0273 181.159 48.3105 181.403 48.4766C181.657 48.6328 182.043 48.7598 182.561 48.8574C182.785 49.502 182.766 50.0928 182.502 50.6299C180.5 50.5127 177.888 50.5127 174.665 50.6299C174.372 50.0146 174.333 49.4238 174.548 48.8574C175.134 48.7402 175.314 48.4521 175.09 47.9932L172.775 45.0488C172.775 46.3086 172.81 47.29 172.878 47.9932C172.917 48.4521 173.166 48.7402 173.625 48.8574C173.82 49.375 173.801 49.9658 173.566 50.6299C170.9 50.5713 168.22 50.5713 165.524 50.6299C165.124 50.0342 165.104 49.4434 165.466 48.8574C167.019 48.6621 167.81 48.3643 167.839 47.9639C167.878 46.9971 167.897 44.8438 167.897 41.5039C167.897 40.6836 167.893 39.458 167.883 37.8271C167.873 36.1865 167.868 35.0049 167.868 34.2822V30.5908C167.224 30.3857 166.33 30.2539 165.188 30.1953C164.973 29.6191 164.973 28.999 165.188 28.335C166.555 28.2178 168.288 27.7783 170.388 27.0166C171.442 27.0947 172.229 27.417 172.746 27.9834V40.2441L174.431 38.6621C174.567 38.5254 174.558 38.4229 174.401 38.3545C174.323 38.335 174.001 38.2764 173.435 38.1787C173.142 37.6221 173.156 37.0312 173.479 36.4062Z" fill="black"/>
<path d="M91.7988 40.6104H89.7627C89.7627 42.9346 89.8115 45.3955 89.9092 47.9932C89.9092 48.0518 89.9336 48.1055 89.9824 48.1543C90.0312 48.2031 90.0996 48.252 90.1875 48.3008C90.2852 48.3496 90.4463 48.4131 90.6709 48.4912C90.8955 48.5693 91.3496 48.6572 92.0332 48.7549C92.7168 48.8428 93.1074 48.8965 93.2051 48.916C93.3711 49.4629 93.3418 50.0635 93.1172 50.7178C89.5137 50.6396 87.3262 50.6006 86.5547 50.6006C86.0273 50.6006 84.1865 50.6396 81.0322 50.7178C80.7881 50.0439 80.7881 49.4141 81.0322 48.8281C83.1514 48.6133 84.2207 48.3252 84.2402 47.9639C84.3574 45.5225 84.416 42.4512 84.416 38.75C84.416 35.6055 84.3672 32.8857 84.2695 30.5908C84.25 30.2295 83.1611 29.9414 81.0029 29.7266C80.8174 29.043 80.8369 28.4131 81.0615 27.8369C84.0596 27.9346 86.0469 27.9834 87.0234 27.9834H100.588C100.832 29.8975 101.594 31.9141 102.873 34.0332C102.648 34.502 102.126 34.8828 101.306 35.1758C100.505 33.7207 99.3232 32.5098 97.7607 31.543C96.208 30.5664 94.1914 30.0781 91.7109 30.0781H89.9092C89.8115 33.584 89.7627 36.2744 89.7627 38.1494C90.2412 38.1689 90.9297 38.1787 91.8281 38.1787C92.6484 38.1787 93.3027 37.9053 93.791 37.3584C94.2793 36.8018 94.8164 35.9375 95.4023 34.7656L96.0322 33.5352C96.8525 33.8281 97.3701 34.2041 97.585 34.6631C96.5498 36.5283 96.0322 38.0615 96.0322 39.2627C96.0322 40.5615 96.5498 42.0898 97.585 43.8477C97.3506 44.3457 96.8525 44.7266 96.0908 44.9902C95.8662 44.6875 95.6074 44.2285 95.3145 43.6133C94.9141 42.9492 94.5967 42.4561 94.3623 42.1338C94.1279 41.8018 93.7812 41.4697 93.3223 41.1377C92.8633 40.8057 92.3555 40.6299 91.7988 40.6104ZM87.5068 39.7461L91.6816 39.7168C92.1016 39.7168 92.4971 39.7852 92.8682 39.9219C93.2393 40.0586 93.5322 40.2002 93.7471 40.3467C93.9717 40.4834 94.2256 40.752 94.5088 41.1523C94.8018 41.5527 95.0068 41.8457 95.124 42.0312C95.251 42.207 95.4561 42.5781 95.7393 43.1445C96.0322 43.7109 96.2275 44.0771 96.3252 44.2432C96.6279 44.1162 96.8184 43.9844 96.8965 43.8477C95.9199 42.1094 95.4316 40.5811 95.4316 39.2627C95.4316 38.6572 95.5684 37.9199 95.8418 37.0508C96.125 36.1816 96.4766 35.3857 96.8965 34.6631C96.8574 34.5264 96.667 34.3994 96.3252 34.2822C96.2471 34.4189 96.0908 34.7119 95.8564 35.1611C95.6318 35.6104 95.4854 35.9033 95.417 36.04C95.3486 36.167 95.207 36.4062 94.9922 36.7578C94.7871 37.1094 94.6211 37.3438 94.4941 37.4609C94.377 37.5781 94.2012 37.7539 93.9668 37.9883C93.7422 38.2129 93.5225 38.3691 93.3076 38.457C93.1025 38.5352 92.8584 38.6084 92.5752 38.6768C92.292 38.7451 91.9941 38.7793 91.6816 38.7793C89.8555 38.7793 88.4639 38.7598 87.5068 38.7207C87.5068 36.3574 87.5654 33.2764 87.6826 29.4775H91.7402C96.5156 29.4775 99.7969 31.1279 101.584 34.4287C101.838 34.3311 102.004 34.1992 102.082 34.0332C101.105 32.041 100.012 30.6348 98.8008 29.8145C97.5898 28.9941 95.7832 28.584 93.3809 28.584H86.6133C85.3926 28.584 83.6787 28.5449 81.4717 28.4668V29.1553C83.7178 29.3701 84.8506 29.8389 84.8701 30.5615C84.9678 32.8564 85.0166 35.5859 85.0166 38.75C85.0166 41.8457 84.958 44.9268 84.8408 47.9932C84.8213 48.7158 83.6885 49.1846 81.4424 49.3994C81.3643 49.5557 81.3643 49.7852 81.4424 50.0879C83.1025 50.0293 84.8066 50 86.5547 50C88.6348 50 90.6318 50.0293 92.5459 50.0879C92.624 49.9316 92.624 49.7021 92.5459 49.3994C89.3232 49.2041 87.6924 48.7354 87.6533 47.9932C87.5557 45.6885 87.5068 42.9395 87.5068 39.7461Z" fill="#FF0404"/>
</g>
<defs>
<clipPath id="clip0_1_2">
<rect width="198" height="79" fill="white"/>
</clipPath>
</defs>
</svg>
